<?xml version="1.0" encoding="utf-8"?>
<!-- Generator: Adobe Illustrator 22.0.1, SVG Export Plug-In . SVG Version: 6.00 Build 0)  -->
<svg version="1.1" id="Layer_1" xmlns="http://www.w3.org/2000/svg" xmlns:xlink="http://www.w3.org/1999/xlink" x="0px" y="0px"
	 viewBox="0 0 512 512" style="enable-background:new 0 0 512 512;" xml:space="preserve">
<style type="text/css">
	.st0{fill:#35216D;}
	.st1{fill:#EDF3FC;}
	.st2{fill:#330D84;}
	.st3{fill:#FFBE1B;}
	.st4{fill:#0061F3;}
	.st5{fill:#8C7BFD;}
	.st6{fill:#FFFFFF;}
	.st7{fill:#5932AE;}
	.st8{fill:#1C46C4;}
	.st9{fill:#6857E5;}
	.st10{fill:#5D8EF9;}
	.st11{fill:#8AC9F9;}
	.st12{fill:#FFE37B;}
	.st13{fill:#FFD000;}
	.st14{fill:#2EF39E;}
	.st15{fill:#330D84;stroke:#330D84;stroke-width:0.6306;stroke-linecap:round;stroke-linejoin:round;stroke-miterlimit:10;}
	.st16{fill:#FFFFFF;stroke:#FFFFFF;stroke-width:0.737;stroke-linecap:round;stroke-linejoin:round;stroke-miterlimit:10;}
	.st17{fill:none;}
	.st18{fill:#FDB813;}
</style>
<g>
	<g>
		<g>
			<g>
				<path class="st1" d="M255.999,40.928c-118.778,0-215.071,96.294-215.071,215.074c0,118.776,96.292,215.068,215.071,215.068
					S471.07,374.778,471.07,256.002C471.07,137.222,374.777,40.928,255.999,40.928z"/>
			</g>
		</g>
		<g>
			<g>
				<path class="st1" d="M255.999,1C115.391,1,1,115.392,1,256.002C1,396.609,115.391,511,255.999,511S511,396.609,511,256.002
					C511,115.392,396.607,1,255.999,1z M255.999,502.832c-136.103,0-246.83-110.728-246.83-246.83
					c0-136.104,110.727-246.833,246.83-246.833c136.102,0,246.832,110.729,246.832,246.833
					C502.831,392.104,392.101,502.832,255.999,502.832z"/>
			</g>
		</g>
	</g>
	<g>
		<g>
			<path class="st10" d="M136.622,361.843c-6.513-1.63-11.595-6.716-13.23-13.228l-0.276-1.112l-0.28,1.112
				c-1.631,6.512-6.717,11.598-13.228,13.228l-1.112,0.28l1.112,0.28c6.512,1.631,11.597,6.715,13.228,13.227l0.28,1.111
				l0.276-1.111c1.635-6.511,6.717-11.595,13.23-13.227l1.112-0.28L136.622,361.843z"/>
		</g>
	</g>
	<g>
		<g>
			<path class="st10" d="M117.439,314.582c-11.834-2.963-21.07-12.204-24.039-24.036l-0.502-2.02l-0.509,2.02
				c-2.963,11.833-12.204,21.073-24.036,24.036l-2.02,0.508l2.02,0.508c11.832,2.964,21.073,12.202,24.036,24.033l0.509,2.019
				l0.502-2.019c2.97-11.831,12.205-21.069,24.039-24.033l2.021-0.508L117.439,314.582z"/>
		</g>
	</g>
	<path class="st3" d="M331.88,400.405l1.416,0.355l-1.416,0.355c-8.289,2.076-14.757,8.547-16.833,16.835l-0.357,1.413l-0.354-1.413
		c-2.076-8.288-8.547-14.759-16.838-16.835l-1.411-0.355l1.411-0.355c8.291-2.076,14.762-8.548,16.838-16.833l0.354-1.413
		l0.357,1.413C317.123,391.857,323.591,398.329,331.88,400.405L331.88,400.405z"/>
	<path class="st3" d="M292.505,377.895l2.125,0.534l-2.125,0.532c-12.444,3.117-22.153,12.831-25.27,25.272l-0.535,2.121
		l-0.532-2.121c-3.117-12.442-12.831-22.156-25.277-25.272l-2.118-0.532l2.118-0.534c12.446-3.117,22.16-12.832,25.277-25.27
		l0.532-2.121l0.535,2.121C270.352,365.063,280.061,374.778,292.505,377.895L292.505,377.895z"/>
	<path class="st2" d="M243.221,116.607l2.767,0.689l-2.767,0.69c-16.164,4.05-28.784,16.676-32.843,32.844l-0.691,2.759
		l-0.688-2.759c-4.056-16.168-16.681-28.794-32.852-32.844l-2.752-0.69l2.752-0.689c16.171-4.052,28.796-16.684,32.852-32.847
		l0.688-2.76l0.691,2.76C214.437,99.923,227.057,112.555,243.221,116.607L243.221,116.607z"/>
	<path class="st7" d="M298.621,329.754c0-30.376,24.625-55,55-55c11.915,0,22.935,3.801,31.941,10.239v-95.655
		c0-10.483-8.501-18.988-18.99-18.988H145.429c-10.49,0-18.991,8.505-18.991,18.988v133.319c0,10.492,8.501,18.994,18.991,18.994
		h154.497C299.081,337.818,298.621,333.84,298.621,329.754z"/>
	<path class="st9" d="M298.621,329.754c0-16.711,7.463-31.669,19.225-41.757l-36.366-29.308l-14.113,12.154
		c-6.534,5.628-16.202,5.628-22.736,0l-14.113-12.154l-97.356,78.463c3.309,2.805,7.589,4.499,12.266,4.499h154.498
		C299.081,337.818,298.621,333.84,298.621,329.754z"/>
	<path class="st5" d="M267.368,270.843l111.47-95.995c-3.309-2.804-7.588-4.498-12.265-4.498H145.428
		c-4.677,0-8.957,1.694-12.266,4.498l111.469,95.995C251.165,276.471,260.834,276.471,267.368,270.843L267.368,270.843z"/>
	<g>
		<path class="st3" d="M269.844,246.484c0,7.646-6.198,13.844-13.844,13.844c-7.645,0-13.843-6.198-13.843-13.844
			c0-7.646,6.198-13.843,13.843-13.843C263.646,232.641,269.844,238.839,269.844,246.484z"/>
	</g>
	<path class="st10" d="M408.621,329.754c0,30.376-24.624,54.999-55,54.999c-30.375,0-55-24.623-55-54.999c0-30.376,24.625-55,55-55
		C383.997,274.754,408.621,299.378,408.621,329.754z"/>
	<g>
		<path class="st2" d="M349.354,334.513l-1.392-20.827c-0.261-4.058-0.392-6.971-0.392-8.739c0-2.405,0.631-4.282,1.892-5.631
			c1.261-1.348,2.92-2.021,4.979-2.021c2.492,0,4.159,0.863,5,2.587c0.841,1.726,1.261,4.211,1.261,7.457
			c0,1.913-0.102,3.855-0.304,5.826l-1.87,21.436c-0.203,2.551-0.638,4.508-1.305,5.87s-1.768,2.043-3.304,2.043
			c-1.565,0-2.652-0.659-3.261-1.979C350.049,339.216,349.614,337.208,349.354,334.513z M354.18,363.122
			c-1.769,0-3.313-0.572-4.631-1.718c-1.319-1.145-1.979-2.746-1.979-4.804c0-1.797,0.631-3.326,1.892-4.588
			c1.261-1.261,2.805-1.891,4.631-1.891s3.384,0.63,4.674,1.891c1.289,1.262,1.935,2.791,1.935,4.588
			c0,2.029-0.652,3.623-1.956,4.782C357.44,362.542,355.919,363.122,354.18,363.122z"/>
	</g>
</g>
</svg>
