<?xml version="1.0" encoding="UTF-8"?>
<!DOCTYPE svg PUBLIC "-//W3C//DTD SVG 1.1//EN" "http://www.w3.org/Graphics/SVG/1.1/DTD/svg11.dtd">
<!-- Creator: CorelDRAW -->
<svg xmlns="http://www.w3.org/2000/svg" xml:space="preserve" width="2048px" height="2048px" style="shape-rendering:geometricPrecision; text-rendering:geometricPrecision; image-rendering:optimizeQuality; fill-rule:evenodd; clip-rule:evenodd"
viewBox="0 0 2048 2048"
 xmlns:xlink="http://www.w3.org/1999/xlink">
 <defs>
  <style type="text/css">
   <![CDATA[
    .fil2 {fill:none}
    .fil11 {fill:#00B8D4}
    .fil19 {fill:#263238}
    .fil12 {fill:#37474F}
    .fil6 {fill:#546E7A}
    .fil5 {fill:#78909C}
    .fil7 {fill:#80D8FF}
    .fil15 {fill:#8D6E63}
    .fil1 {fill:#BA68C8}
    .fil0 {fill:#CE93D8}
    .fil14 {fill:#ECC46D}
    .fil13 {fill:#EED9A9}
    .fil3 {fill:#263238;fill-rule:nonzero}
    .fil4 {fill:#37474F;fill-rule:nonzero}
    .fil16 {fill:#3E2723;fill-rule:nonzero}
    .fil17 {fill:#5D4037;fill-rule:nonzero}
    .fil10 {fill:#7CB342;fill-rule:nonzero}
    .fil18 {fill:#DD2C00;fill-rule:nonzero}
    .fil8 {fill:#EF5350;fill-rule:nonzero}
    .fil9 {fill:#FFAB40;fill-rule:nonzero}
   ]]>
  </style>
   <clipPath id="id0">
    <path d="M1024 -0.0011811c565.539,0 1024,458.462 1024,1024 0,565.539 -458.462,1024 -1024,1024 -565.539,0 -1024,-458.462 -1024,-1024 0,-565.539 458.462,-1024 1024,-1024z"/>
   </clipPath>
 </defs>
 <g id="Layer_x0020_1">
  <metadata id="CorelCorpID_0Corel-Layer"/>
  <path class="fil0" d="M1024 -0.0011811c565.539,0 1024,458.462 1024,1024 0,565.539 -458.462,1024 -1024,1024 -565.539,0 -1024,-458.462 -1024,-1024 0,-565.539 458.462,-1024 1024,-1024z"/>
  <g style="clip-path:url(#id0)">
   <g id="_289371656">
    <g>
     <polygon id="_2926810641" class="fil1" points="1345.41,640.415 2481.29,1776.3 2481.29,1832.38 1345.41,696.501 "/>
     <polygon id="_292681088" class="fil1" points="1575.22,704.879 2711.1,1840.76 2712.43,1842.53 2713.58,1844.43 2714.55,1846.44 2715.32,1848.56 2715.89,1850.76 2716.24,1853.05 2716.36,1855.4 1580.48,719.521 1580.36,717.167 1580.01,714.882 1579.44,712.675 1578.67,710.561 1577.7,708.549 1576.55,706.651 "/>
     <polygon id="_292681808" class="fil1" points="1580.48,719.521 2716.36,1855.4 2716.36,2364.57 1580.48,1228.68 "/>
     <polygon id="_292682192" class="fil1" points="1580.48,1228.68 2716.36,2364.57 2716.36,2517.45 1580.48,1381.57 "/>
     <polygon id="_292682288" class="fil1" points="1580.48,1381.57 2716.36,2517.45 2716.24,2519.81 2715.89,2522.09 2715.32,2524.3 2714.55,2526.41 2713.58,2528.43 2712.43,2530.32 2711.1,2532.1 2709.62,2533.73 2707.98,2535.22 2706.21,2536.54 2704.31,2537.69 2702.3,2538.66 2700.19,2539.44 2697.98,2540.01 2695.69,2540.35 2693.34,2540.47 1557.46,1404.59 1559.81,1404.47 1562.1,1404.12 1564.3,1403.56 1566.42,1402.78 1568.43,1401.81 1570.33,1400.66 1572.1,1399.33 1573.74,1397.85 1575.22,1396.21 1576.55,1394.44 1577.7,1392.54 1578.67,1390.53 1579.44,1388.42 1580.01,1386.21 1580.36,1383.92 "/>
     <polygon id="_292682312" class="fil1" points="1557.46,1404.59 2693.34,2540.47 2219.05,2540.47 1083.17,1404.59 "/>
     <polygon id="_292682336" class="fil1" points="1083.17,1404.59 2219.05,2540.47 2219.05,2647.29 1083.17,1511.4 "/>
     <polygon id="_292682384" class="fil1" points="1249.69,1539.93 2385.57,2675.81 2387.1,2677.54 2388.21,2679.32 2388.88,2681.15 2389.11,2683.03 1253.23,1547.14 1253,1545.27 1252.32,1543.44 1251.22,1541.66 "/>
     <polygon id="_292682576" class="fil1" points="964.834,1404.59 2100.72,2540.47 1626.42,2540.47 490.542,1404.59 "/>
     <polygon id="_292682504" class="fil1" points="1253.23,1547.14 2389.11,2683.03 2387.79,2687.49 2383.96,2691.66 2377.77,2695.55 2369.41,2699.15 2359.03,2702.46 2346.8,2705.49 2332.89,2708.22 2317.47,2710.67 2300.71,2712.83 2282.78,2714.7 2263.83,2716.28 2244.05,2717.58 2223.6,2718.59 2202.64,2719.31 2181.34,2719.74 2159.88,2719.88 2138.42,2719.74 2117.13,2719.31 2096.17,2718.59 2075.71,2717.58 2055.93,2716.28 2036.99,2714.7 2019.05,2712.83 2002.29,2710.67 1986.87,2708.22 1972.96,2705.49 1960.74,2702.46 1950.36,2699.15 1941.99,2695.55 1935.8,2691.66 799.923,1555.78 806.108,1559.67 814.475,1563.27 824.855,1566.58 837.083,1569.6 850.99,1572.34 866.408,1574.79 883.169,1576.95 901.105,1578.82 920.049,1580.4 939.832,1581.7 960.287,1582.7 981.244,1583.42 1002.54,1583.86 1024,1584 1045.46,1583.86 1066.76,1583.42 1087.71,1582.7 1108.17,1581.7 1127.95,1580.4 1146.9,1578.82 1164.83,1576.95 1181.59,1574.79 1197.01,1572.34 1210.92,1569.6 1223.15,1566.58 1233.53,1563.27 1241.89,1559.67 1248.08,1555.78 1251.91,1551.61 "/>
     <polygon id="_292683032" class="fil1" points="490.542,1404.59 1626.42,2540.47 1624.07,2540.35 1621.78,2540.01 1619.58,2539.44 1617.46,2538.66 1615.45,2537.69 1613.55,2536.54 1611.78,2535.22 475.898,1399.33 477.671,1400.66 479.569,1401.81 481.581,1402.78 483.696,1403.56 485.902,1404.12 488.188,1404.47 "/>
    </g>
    <path id="_289372232" class="fil1" d="M721.684 463.999l447.31 0 176.415 176.417 0 56.0859 212.049 0c12.7134,0 23.0197,10.3063 23.0197,23.0197l0 509.162 0 152.888c0,12.7122 -10.3063,23.0197 -23.0197,23.0197l-474.292 0 0 106.814c91.8296,3.52796 170.06,15.4417 170.06,35.7402 0,49.1398 -458.451,49.1398 -458.451,0 0,-20.2984 78.2304,-32.2122 170.059,-35.7402l0 -106.814 -474.292 0c-12.7134,0 -23.0209,-10.3075 -23.0209,-23.0197l0 -152.888 0 -509.162c0,-12.7134 10.3075,-23.0197 23.0209,-23.0197l211.184 0 0 -212.543c0,-10.9772 8.98229,-19.9595 19.9583,-19.9595z"/>
   </g>
  </g>
  <path class="fil2" d="M1024 -0.0011811c565.539,0 1024,458.462 1024,1024 0,565.539 -458.462,1024 -1024,1024 -565.539,0 -1024,-458.462 -1024,-1024 0,-565.539 458.462,-1024 1024,-1024z"/>
  <path class="fil3" d="M794.775 1547.14c0,49.1398 458.451,49.1398 458.451,0 0,-49.1386 -458.451,-49.1386 -458.451,0z"/>
  <path class="fil4" d="M1083.17 1381.57c0,-12.7134 -26.491,-23.0209 -59.1662,-23.0209 -32.6752,0 -59.1662,10.3075 -59.1662,23.0209l0 156.03c0,12.7134 26.491,23.0197 59.1662,23.0197 32.6752,0 59.1662,-10.3063 59.1662,-23.0197l0 -156.03z"/>
  <path class="fil5" d="M490.542 696.501l1066.92 0c12.7134,0 23.0197,10.3063 23.0197,23.0197l0 662.05c0,12.7122 -10.3063,23.0197 -23.0197,23.0197l-1066.92 0c-12.7134,0 -23.0209,-10.3075 -23.0209,-23.0197l0 -662.05c0,-12.7134 10.3075,-23.0197 23.0209,-23.0197z"/>
  <path class="fil6" d="M1580.48 1228.68l0 152.888c0,12.7122 -10.3063,23.0197 -23.0197,23.0197l-1066.92 0c-12.7134,0 -23.0209,-10.3075 -23.0209,-23.0197l0 -152.888 1112.96 0z"/>
  <polygon class="fil7" points="1534.44,742.542 513.561,742.542 513.561,1211.43 1534.44,1211.43 "/>
  <polygon class="fil8" points="1505.26,1302.05 1505.26,1331.23 1534.44,1331.23 1534.44,1302.05 "/>
  <polygon class="fil9" points="1403.05,1331.23 1432.23,1331.23 1432.23,1302.05 1403.05,1302.05 "/>
  <polygon class="fil10" points="1454.08,1302.05 1454.08,1331.23 1483.26,1331.23 1483.26,1302.05 "/>
  <ellipse class="fil11" cx="1024" cy="1316.64" rx="28.1418" ry="28.1419"/>
  <ellipse class="fil12" cx="1024" cy="1316.64" rx="23.937" ry="23.937"/>
  <path class="fil13" d="M721.684 463.999l447.31 0 176.415 176.417 0 571.079 -643.684 0 0 -727.536c0,-10.9772 8.98229,-19.9595 19.9583,-19.9595z"/>
  <path class="fil14" d="M1345.41 640.415l-0.533859 0 -155.923 0c-10.9772,0 -19.9583,-8.97993 -19.9583,-19.9583l0 -156.402 0 -0.0555119 176.415 176.415z"/>
  <rect class="fil15" x="777.82" y="749.243" width="457.685" height="17.4636"/>
  <rect class="fil15" x="777.82" y="786.666" width="345.064" height="17.4636"/>
  <rect class="fil15" x="777.82" y="911.929" width="457.685" height="17.4636"/>
  <rect class="fil15" x="777.82" y="949.353" width="345.064" height="17.4636"/>
  <rect class="fil15" x="777.82" y="1072.04" width="457.685" height="17.4636"/>
  <rect class="fil15" x="777.82" y="1109.47" width="345.064" height="17.4636"/>
  <rect class="fil15" x="777.82" y="569.498" width="259.048" height="17.4636"/>
  <rect class="fil15" x="777.82" y="606.921" width="195.306" height="17.4636"/>
  <path class="fil16" d="M1024.48 1053.78l272.935 -273.474 71.8583 72.9839 -272.606 273.144 0.0011811 0.0011811c-1.70906,1.70906 -3.75591,2.87481 -5.92441,3.49843l-82.9914 29.5595 0.00826772 0.0236221c-7.1752,2.55473 -15.0638,-1.18937 -17.6197,-8.36457 -1.27795,-3.58937 -0.979135,-7.35827 0.537402,-10.5473l30.4441 -81.6355 -0.0472441 -0.0248032c0.754725,-2.02559 1.93583,-3.76772 3.40394,-5.16496z"/>
  <path class="fil17" d="M1092.29 1129.64l-17.8382 -2.26536 5.17205 -22.6902 -23.9941 2.82874 5.06811 -22.4681 -22.8744 5.55237 5.95512 -23.6126 -19.5662 9.74883 -3.03544 -18.2067c-0.43937,0.719292 -0.814961,1.49055 -1.12087,2.30906l0.046063 0.0236221 -30.6638 81.717c-1.47992,3.11339 -1.77165,6.79252 -0.523229,10.2957 2.49449,7.00512 10.1965,10.6595 17.2004,8.16497l-0.00708662 -0.0212599 81.0166 -28.8567c1.13976,-0.328347 4.12914,-1.88504 5.16496,-2.51929z"/>
  <path class="fil18" d="M1290.52 787.742l64.226 -64.226 -0.0011811 -0.0011811c5.38583,-5.38583 14.1177,-5.38583 19.5036,0l0.0767717 0.0779528 52.8426 52.8426 0.0011811 -0.0011811c5.38465,5.38583 5.38465,14.1189 0,19.5036l-0.0779528 0.0767717 -64.7126 64.7126 -71.8583 -72.9851z"/>
  <path class="fil19" d="M997.302 1152.15c4.22835,4.63937 10.2921,4.81772 4.01811,11.7425 -6.27402,6.92363 -14.9788,9.25985 -19.4398,5.21575 -4.46221,-4.04292 -3.17481,-12.4736 3.27992,-19.8591 6.45473,-7.38544 7.91457,-1.73858 12.1417,2.90079z"/>
  <path class="fil17" d="M1271.57 880.991c1.68189,-1.68307 1.68189,-4.41142 0,-6.09449 -1.68307,-1.68189 -4.41142,-1.68189 -6.09449,0l-134.675 134.675c-1.68189,1.68307 -1.68189,4.4126 0,6.09449 1.68189,1.68189 4.41142,1.68189 6.09449,0l134.675 -134.675z"/>
 </g>
</svg>
